<?xml version="1.0" encoding="UTF-8" standalone="no"?>
<!DOCTYPE svg PUBLIC "-//W3C//DTD SVG 1.1//EN" "http://www.w3.org/Graphics/SVG/1.1/DTD/svg11.dtd">
<svg version="1.1" xmlns="http://www.w3.org/2000/svg" xmlns:xlink="http://www.w3.org/1999/xlink" preserveAspectRatio="xMidYMid meet" viewBox="0 0 640 640"><defs><path d="M0 0L230 0L230 80L0 80L0 0Z" id="xk0jxBvOMw"></path><path d="M230 80L0 80L0 160L230 160L230 80Z" id="FgF49JWsp6"></path><path d="M230 160L0 160L0 240L230 240L230 160Z" id="Q74oxvtL11"></path><path d="M440 120C440 186.23 357.1 240 255 240C152.9 240 70 186.23 70 120C70 53.77 152.9 0 255 0C357.1 0 440 53.77 440 120Z" id="TbsMsGpa85"></path><path d="M0 230L230 230L230 240L0 240L0 230Z" id="SAiWD9iofR"></path><path d="M0 0L230 0L230 10L0 10L0 0Z" id="Mg27qNnIrQ"></path><path d="M0 0L10 0L10 240L0 240L0 0Z" id="Cxw7XXXj3L"></path><path d="M170 0L310 0L310 240L170 240L170 0Z" id="bhMmXxBpzW"></path></defs><g visibility="visible"><g visibility="visible"><g><use xlink:href="#xk0jxBvOMw" opacity="1" fill="#ff0000" fill-opacity="1"></use></g><g><use xlink:href="#FgF49JWsp6" opacity="1" fill="#f4ff00" fill-opacity="1"></use></g><g><use xlink:href="#Q74oxvtL11" opacity="1" fill="#1cff00" fill-opacity="1"></use></g><g><use xlink:href="#TbsMsGpa85" opacity="1" fill="#ffffff" fill-opacity="1"></use></g><g><use xlink:href="#SAiWD9iofR" opacity="1" fill="#ffffff" fill-opacity="1"></use></g><g><use xlink:href="#Mg27qNnIrQ" opacity="1" fill="#ffffff" fill-opacity="1"></use></g><g><use xlink:href="#Cxw7XXXj3L" opacity="1" fill="#ffffff" fill-opacity="1"></use></g><g><use xlink:href="#bhMmXxBpzW" opacity="1" fill="#ffffff" fill-opacity="1"></use></g></g></g></svg>